<svg xmlns="http://www.w3.org/2000/svg" xmlns:xlink="http://www.w3.org/1999/xlink" width="781" height="440" viewBox="0 0 781 440"><defs><clipPath id="a"><path d="M487.26,287l-28-57s-10,4.88-10.94,4.88l-7.58,16L459,283.68a1.74,1.74,0,0,1-.94,2.26,1.77,1.77,0,0,1-.91.11L421.55,283a102.68,102.68,0,0,0-36,0L350.37,286a1.76,1.76,0,0,1-1.73-2.5l18.14-40.77-11-3.08c-.91,0-10.94-4.88-10.94-4.88l-25,52.21a35.65,35.65,0,0,0-1.53,27.27h0c2.66,7.56,7.93,13.05,20.14,20.93a62.43,62.43,0,0,0,19.25,8.32,194.26,194.26,0,0,0,88.15.63c11.19-2.51,18.31-5.41,25-9.16,12.67-7.11,15.21-13.16,17.87-20.72h0A35.69,35.69,0,0,0,487.26,287Z" fill="none"/></clipPath></defs><title>Second-order-SQL-injection</title><path d="M421.23,244.57C374,212.74,336.59,196.81,307,193.51c-18.09-2.4-31.7,14.18-28,25.76,10.2,31.95,48.93,75.94,68,89.61,5.35-4.18,56.79-1.39,59.15-4.68,1-1.95,4.1-10.91,6-19.72l-3.44-2.89C410.81,276,418.25,251,421.23,244.57Z" fill="#4c5054" stroke="#4c5054" stroke-miterlimit="10" stroke-width="2.48"/><path d="M503.83,183.16a1.14,1.14,0,0,0-.73-.36c-17.76-2.13-78.91,19.5-125,55,1.42,2.62,17.75,23,22.63,27.44-3.78,3.21-7.46,6.32-11,9.27,1.86,8.81,4.94,17.77,6,19.72,2.35,3.29,47.29,7.13,52.64,11.31,19.06-13.67,64.3-64.3,74.5-96.24C525.89,199.78,517,184.82,503.83,183.16Z" fill="#4c5054" stroke="#4c5054" stroke-miterlimit="10" stroke-width="2.48"/><rect x="384.51" y="237.83" width="33.36" height="17" rx="1.48" fill="#ededed"/><path d="M337.19,247.93a3.41,3.41,0,0,1-3.39-3.4l2.36-73.21,128.7.37,2.91,72.84a3.4,3.4,0,0,1-3.4,3.4Z" fill="#fff" stroke="#4c5054" stroke-miterlimit="10" stroke-width="2.02"/><rect x="398.3" y="183.83" width="6.2" height="5.88" rx="0.52" fill="#cbd0d1"/><rect x="382.94" y="183.83" width="6.2" height="5.88" rx="0.52" fill="#cbd0d1"/><rect x="390.62" y="183.83" width="6.2" height="5.88" rx="0.52" fill="#cbd0d1"/><path d="M368.1,189.71a.52.52,0,0,1-.52-.52v-4.84a.52.52,0,0,1,.52-.52h5.16a.51.51,0,0,1,.52.5v4.86a.52.52,0,0,1-.52.52Z" fill="#cbd0d1"/><rect x="375.26" y="183.83" width="6.2" height="5.88" rx="0.52" fill="#cbd0d1"/><rect x="405.98" y="183.83" width="6.2" height="5.88" rx="0.52" fill="#cbd0d1"/><path d="M421.86,189.71a.52.52,0,0,1-.52-.52v-4.84a.52.52,0,0,1,.52-.52H427a.49.49,0,0,1,.36.15.51.51,0,0,1,.15.37v4.84a.52.52,0,0,1-.52.52Z" fill="#cbd0d1"/><path d="M429.54,189.71a.52.52,0,0,1-.52-.52v-4.84a.52.52,0,0,1,.52-.52h5.17a.48.48,0,0,1,.36.15.52.52,0,0,1,.16.37v4.84a.52.52,0,0,1-.52.52Z" fill="#cbd0d1"/><path d="M414.18,189.71a.52.52,0,0,1-.52-.52v-4.84a.52.52,0,0,1,.52-.52h5.17a.48.48,0,0,1,.36.15.51.51,0,0,1,.15.37v4.84a.52.52,0,0,1-.52.52Z" fill="#cbd0d1"/><rect x="399.89" y="205.9" width="6.2" height="5.88" rx="0.52" fill="#cbd0d1"/><path d="M385.05,211.78a.51.51,0,0,1-.37-.15.49.49,0,0,1-.15-.36v-4.85a.54.54,0,0,1,.52-.52h5.17a.54.54,0,0,1,.52.52v4.85a.51.51,0,0,1-.51.51h-5.18Z" fill="#cbd0d1"/><rect x="392.21" y="205.9" width="6.2" height="5.88" rx="0.52" fill="#cbd0d1"/><rect x="376.85" y="205.9" width="6.2" height="5.88" rx="0.52" fill="#cbd0d1"/><rect x="407.57" y="205.9" width="6.2" height="5.88" rx="0.52" fill="#cbd0d1"/><path d="M431.94,197.07a.56.56,0,0,1-.37-.15.51.51,0,0,1-.15-.37v-4.84a.52.52,0,0,1,.52-.52h5.16a.52.52,0,0,1,.52.52v4.84a.52.52,0,0,1-.52.52Z" fill="#cbd0d1"/><rect x="358.61" y="198.55" width="6.2" height="5.88" rx="0.52" fill="#cbd0d1"/><rect x="359.9" y="183.83" width="6.2" height="5.88" rx="0.52" fill="#cbd0d1"/><rect x="354.62" y="191.19" width="6.2" height="5.88" rx="0.52" fill="#cbd0d1"/><path d="M362,211.78a.51.51,0,0,1-.52-.5h0v-4.85a.54.54,0,0,1,.52-.52h5.17a.48.48,0,0,1,.36.16.48.48,0,0,1,.15.36v4.85a.51.51,0,0,1-.51.51H362Z" fill="#cbd0d1"/><rect x="369.17" y="205.9" width="6.2" height="5.88" rx="0.52" fill="#cbd0d1"/><rect x="366.29" y="198.55" width="6.2" height="5.88" rx="0.52" fill="#cbd0d1"/><rect x="393.02" y="191.19" width="6.2" height="5.88" rx="0.52" fill="#cbd0d1"/><rect x="400.7" y="191.19" width="6.2" height="5.88" rx="0.52" fill="#cbd0d1"/><rect x="385.34" y="191.19" width="6.2" height="5.88" rx="0.52" fill="#cbd0d1"/><path d="M408.9,197.07a.52.52,0,0,1-.52-.52v-4.84a.52.52,0,0,1,.52-.52h5.16a.52.52,0,0,1,.52.52v4.84a.51.51,0,0,1-.15.37.56.56,0,0,1-.37.15Z" fill="#cbd0d1"/><rect x="377.66" y="191.19" width="6.2" height="5.88" rx="0.52" fill="#cbd0d1"/><rect x="423.74" y="191.19" width="6.2" height="5.88" rx="0.52" fill="#cbd0d1"/><rect x="369.98" y="191.19" width="6.2" height="5.88" rx="0.52" fill="#cbd0d1"/><path d="M444.15,182.35a.52.52,0,0,1-.52-.52v-2.41a.52.52,0,0,1,.52-.52h4a.51.51,0,0,1,.52.5v2.43a.52.52,0,0,1-.52.52Z" fill="#cbd0d1"/><rect x="437.1" y="178.9" width="5.02" height="3.45" rx="0.52" fill="#cbd0d1"/><rect x="416.06" y="191.19" width="6.2" height="5.88" rx="0.52" fill="#cbd0d1"/><path d="M374.49,204.43a.52.52,0,0,1-.37-.16.49.49,0,0,1-.15-.36v-4.85a.53.53,0,0,1,.52-.51h5.17a.53.53,0,0,1,.52.51v4.85a.54.54,0,0,1-.52.52Z" fill="#cbd0d1"/><path d="M412.89,204.43a.52.52,0,0,1-.37-.16.49.49,0,0,1-.15-.36v-4.85a.51.51,0,0,1,.51-.51h5.17a.51.51,0,0,1,.52.5h0v4.85a.54.54,0,0,1-.52.52Z" fill="#cbd0d1"/><path d="M405.21,204.43a.54.54,0,0,1-.52-.52v-4.85a.51.51,0,0,1,.51-.51h5.17a.51.51,0,0,1,.37.15.49.49,0,0,1,.15.36v4.85a.54.54,0,0,1-.52.52Z" fill="#cbd0d1"/><path d="M420.57,204.43a.54.54,0,0,1-.52-.52v-4.85a.51.51,0,0,1,.51-.51h5.17a.51.51,0,0,1,.52.5h0v4.85a.54.54,0,0,1-.52.52Z" fill="#cbd0d1"/><rect x="397.01" y="198.55" width="6.2" height="5.88" rx="0.52" fill="#cbd0d1"/><rect x="427.74" y="198.55" width="6.2" height="5.88" rx="0.52" fill="#cbd0d1"/><rect x="389.33" y="198.55" width="6.2" height="5.88" rx="0.52" fill="#cbd0d1"/><rect x="362.3" y="191.19" width="6.2" height="5.88" rx="0.52" fill="#cbd0d1"/><path d="M415.77,211.78a.51.51,0,0,1-.37-.15.55.55,0,0,1-.15-.36v-4.85a.54.54,0,0,1,.52-.52h5.17a.54.54,0,0,1,.52.52v4.85a.51.51,0,0,1-.51.51h-5.18Z" fill="#cbd0d1"/><path d="M382.17,204.43a.52.52,0,0,1-.37-.16.49.49,0,0,1-.15-.36v-4.85a.53.53,0,0,1,.52-.51h5.17a.51.51,0,0,1,.52.5h0v4.85a.54.54,0,0,1-.52.52Z" fill="#cbd0d1"/><path d="M430.65,219.61a.51.51,0,0,1-.37-.15.49.49,0,0,1-.15-.36v-1.62a.52.52,0,0,1,.52-.52h6.76a.52.52,0,0,1,.52.52v1.61a.52.52,0,0,1-.52.52Z" fill="#cbd0d1"/><rect x="422.93" y="205.9" width="6.2" height="5.88" rx="0.52" fill="#cbd0d1"/><rect x="376.37" y="213.26" width="36.92" height="6.35" rx="0.52" fill="#cbd0d1"/><path d="M415.29,219.61a.51.51,0,0,1-.37-.15.49.49,0,0,1-.15-.36v-5.32a.52.52,0,0,1,.52-.52h5.17a.51.51,0,0,1,.51.51h0v5.31a.52.52,0,0,1-.52.52Z" fill="#cbd0d1"/><rect x="422.45" y="213.26" width="6.2" height="6.35" rx="0.52" fill="#cbd0d1"/><rect x="439.41" y="216.96" width="7.8" height="2.65" rx="0.52" fill="#cbd0d1"/><path d="M439.93,215.48a.51.51,0,0,1-.37-.15.56.56,0,0,1-.15-.37v-1.18a.52.52,0,0,1,.52-.52h6.77a.55.55,0,0,1,.36.15.51.51,0,0,1,.15.37V215a.52.52,0,0,1-.52.52Z" fill="#cbd0d1"/><path d="M361.53,219.61a.52.52,0,0,1-.52-.52v-5.31a.52.52,0,0,1,.52-.52h5.16a.52.52,0,0,1,.52.52v5.32a.49.49,0,0,1-.15.36.51.51,0,0,1-.37.15Z" fill="#cbd0d1"/><path d="M345.26,211.78v-5.36a.53.53,0,0,1,.53-.52H359.5a.53.53,0,0,1,.51.52v4.85a.51.51,0,0,1-.51.51H345.26Z" fill="#cbd0d1"/><path d="M345.27,204.43v-5.37a.51.51,0,0,1,.51-.51h10.84a.53.53,0,0,1,.52.51v4.85a.54.54,0,0,1-.52.52Z" fill="#cbd0d1"/><rect x="353.33" y="213.26" width="6.2" height="6.35" rx="0.52" fill="#cbd0d1"/><rect x="345.26" y="213.26" width="6.59" height="6.35" rx="0.52" fill="#cbd0d1"/><path d="M450.68,182.35a.52.52,0,0,1-.52-.52v-2.41a.52.52,0,0,1,.52-.52H455a.51.51,0,0,1,.52.5v2.43a.52.52,0,0,1-.52.52Z" fill="#cbd0d1"/><path d="M345.27,197.07v-5.36a.52.52,0,0,1,.52-.52h6.83a.52.52,0,0,1,.52.52v4.84a.52.52,0,0,1-.52.52Z" fill="#cbd0d1"/><path d="M345.79,182.35a.51.51,0,0,1-.37-.15.56.56,0,0,1-.15-.37v-2.41a.52.52,0,0,1,.52-.52h4.42a.52.52,0,0,1,.52.52v2.41a.52.52,0,0,1-.52.52Z" fill="#cbd0d1"/><rect x="448.69" y="216.96" width="6.82" height="2.65" rx="0.52" fill="#cbd0d1"/><path d="M444.9,189.71a.52.52,0,0,1-.52-.52v-4.84a.52.52,0,0,1,.52-.52h10.62v5.36a.52.52,0,0,1-.52.52Z" fill="#cbd0d1"/><path d="M438.81,211.78a.52.52,0,0,1-.52-.52v-4.84a.54.54,0,0,1,.52-.52h16.25a.44.44,0,0,1,.45.45v4.91a.52.52,0,0,1-.52.52Z" fill="#cbd0d1"/><path d="M443.61,204.43a.54.54,0,0,1-.52-.52v-4.85a.51.51,0,0,1,.51-.51h11.9v5.36a.52.52,0,0,1-.52.52Z" fill="#cbd0d1"/><path d="M447.3,197.07a.56.56,0,0,1-.37-.15.51.51,0,0,1-.15-.37v-4.84a.52.52,0,0,1,.52-.52h8.21v5.36a.52.52,0,0,1-.52.52Z" fill="#cbd0d1"/><rect x="368.69" y="213.26" width="6.2" height="6.35" rx="0.52" fill="#cbd0d1"/><rect x="436.7" y="183.83" width="6.2" height="5.88" rx="0.52" fill="#cbd0d1"/><path d="M424.57,182.35a.52.52,0,0,1-.52-.52v-2.41a.52.52,0,0,1,.52-.52h4a.49.49,0,0,1,.36.15.51.51,0,0,1,.15.37v2.41a.52.52,0,0,1-.52.52Z" fill="#cbd0d1"/><rect x="404.46" y="178.9" width="5.02" height="3.45" rx="0.52" fill="#cbd0d1"/><path d="M411.51,182.35a.51.51,0,0,1-.52-.5v-2.43a.52.52,0,0,1,.52-.52h4a.52.52,0,0,1,.52.52v2.41a.52.52,0,0,1-.52.52Z" fill="#cbd0d1"/><rect x="417.52" y="178.9" width="5.02" height="3.45" rx="0.52" fill="#cbd0d1"/><path d="M431.1,182.35a.51.51,0,0,1-.52-.5v-2.43a.52.52,0,0,1,.52-.52h4a.52.52,0,0,1,.52.52v2.41a.52.52,0,0,1-.52.52Z" fill="#cbd0d1"/><path d="M431.13,211.78a.51.51,0,0,1-.37-.15.55.55,0,0,1-.15-.36v-4.85a.54.54,0,0,1,.52-.52h5.17a.52.52,0,0,1,.37.16.49.49,0,0,1,.15.36v4.85a.53.53,0,0,1-.52.51Z" fill="#cbd0d1"/><path d="M439.62,197.07a.56.56,0,0,1-.37-.15.51.51,0,0,1-.15-.37v-4.84a.52.52,0,0,1,.52-.52h5.16a.52.52,0,0,1,.52.52v4.84a.52.52,0,0,1-.52.52Z" fill="#cbd0d1"/><rect x="435.42" y="198.55" width="6.2" height="5.88" rx="0.52" fill="#cbd0d1"/><path d="M398.45,182.35a.52.52,0,0,1-.52-.52v-2.41a.51.51,0,0,1,.5-.52h4a.51.51,0,0,1,.52.5v2.43a.52.52,0,0,1-.52.52Z" fill="#cbd0d1"/><rect x="358.77" y="178.9" width="5.01" height="3.45" rx="0.52" fill="#cbd0d1"/><rect x="352.24" y="178.9" width="5.02" height="3.45" rx="0.52" fill="#cbd0d1"/><rect x="365.29" y="178.9" width="5.02" height="3.45" rx="0.52" fill="#cbd0d1"/><rect x="352.22" y="183.83" width="6.2" height="5.88" rx="0.52" fill="#cbd0d1"/><rect x="391.41" y="178.9" width="5.02" height="3.45" rx="0.52" fill="#cbd0d1"/><path d="M345.27,189.71v-5.36a.52.52,0,0,1,.52-.52h4.43a.52.52,0,0,1,.52.52v4.84a.52.52,0,0,1-.52.52Z" fill="#cbd0d1"/><path d="M372.34,182.35a.52.52,0,0,1-.52-.52v-2.41a.52.52,0,0,1,.52-.52h4a.51.51,0,0,1,.37.15.56.56,0,0,1,.15.37v2.41a.52.52,0,0,1-.52.52Z" fill="#cbd0d1"/><rect x="384.88" y="178.9" width="5.02" height="3.45" rx="0.52" fill="#cbd0d1"/><path d="M378.87,182.35a.52.52,0,0,1-.52-.52v-2.41a.52.52,0,0,1,.52-.52h4a.48.48,0,0,1,.36.15.52.52,0,0,1,.16.37v2.41a.52.52,0,0,1-.52.52Z" fill="#cbd0d1"/><path d="M326.77,102.18l9.32,69.16H465l9.32-69.15Z" fill="#fff" stroke="#4c5054" stroke-miterlimit="10" stroke-width="2.02"/><path d="M456.69,165.46H345.46a2.86,2.86,0,0,1-2.84-2.52l-6.62-50a2.87,2.87,0,0,1,2.51-3.19l.34,0h124a2.86,2.86,0,0,1,2.86,2.86c0,.12,0,.23,0,.35-1.28,10.36-5,40.74-6.1,50A2.87,2.87,0,0,1,456.69,165.46Z" fill="#fff" stroke="#4c5054" stroke-miterlimit="10" stroke-width="2.02"/><path d="M347.88,266.41s-.37-29.27-.56-30.79l-2.13-17.53s-1.61-12-1.37-14c0-1.36,3.62-.73,4.08,1.17.32,1.29.87,8.77,2.28,11.72-.2-2.77-1.08-12.6-1.08-12.6l1.8-10.15c0-.12,1-.08,1.05-.15a.42.42,0,0,1,.36-.08,2.34,2.34,0,0,1,1.69,1.25l.28.54.68-4.45a.91.91,0,0,1,1-.74h0a3.23,3.23,0,0,1,3,3.19v10.67s1.91,10.41,2.12,10.38c.53,0,.27-11.26.27-11.26l.95-10.13a1,1,0,0,1,1.17-.79h.06c1.37.35,3.16,2.16,3.13,3.58l-.2,7.92L367.59,216s.8,3,1.44,4.9c.24.71,3.82-4,3.82-4l1.25-5.31a4.39,4.39,0,0,1,2.72-3.28h0c1-.4,2.3,1.75,2.3,2.86v6.35a6.32,6.32,0,0,1-.36,2.11l-3.68,10.31a6.44,6.44,0,0,1-1.07,1.87l-6.15,7.39a14.37,14.37,0,0,0-3.1,6.64l-16.52,17.45Z" fill="#fff" stroke="#4c5054" stroke-miterlimit="3" stroke-width="4.96"/><path d="M347.88,266.41s-.37-29.27-.56-30.79l-2.13-17.53s-1.61-12-1.37-14c0-1.36,3.62-.73,4.08,1.17a54.48,54.48,0,0,1,.2,6.88l2.8-17.91c0-.12,1-.08,1.05-.15a.42.42,0,0,1,.36-.08,2.34,2.34,0,0,1,1.69,1.25l.28.54.68-4.45a.91.91,0,0,1,1-.74h0a3.23,3.23,0,0,1,3,3.19v20l1.19-8.3,2.19-12a1,1,0,0,1,1.17-.79h.06c1.37.35,3.16,2.16,3.13,3.58l-.2,7.92L367.59,216s.8,3,1.44,4.9c.24.71,3.82-4,3.82-4l1.25-5.31a4.39,4.39,0,0,1,2.72-3.28h0c1-.4,2.3,1.75,2.3,2.86v6.35a6.32,6.32,0,0,1-.36,2.11l-3.68,10.31a6.44,6.44,0,0,1-1.07,1.87l-6.15,7.39a14.37,14.37,0,0,0-3.1,6.64l-16.52,17.45Z" fill="#fff"/><path d="M458.77,255.91s-3.08-29.12-3.07-30.65l.05-17.66s.18-12.11-.28-14c-.18-1.35-3.69-.3-3.93,1.65-.15,1.31.18,8.8-.88,11.9-.12-2.78-.41-12.64-.41-12.64l-3-9.86c0-.13-.95,0-1.06,0a.59.59,0,0,0-.37,0,2.4,2.4,0,0,0-1.53,1.45l-.21.57-1.2-4.34a.91.91,0,0,0-1-.62h0a3.22,3.22,0,0,0-2.63,3.52l1.24,10.6s-.67,10.56-.88,10.56c-.53,0-1.59-11.15-1.59-11.15l-2.15-10a1,1,0,0,0-1.26-.65l-.05,0h0c-1.32.51-2.88,2.52-2.68,3.92l1.13,7.84.26,11.83s-.43,3.09-.85,5c-.15.72-4.27-3.56-4.27-3.56l-1.86-5.12a4.38,4.38,0,0,0-3.09-2.94h0c-1.07-.27-2.07,2-1.95,3.12L422,211a6.13,6.13,0,0,0,.6,2.05l4.87,9.8a6.27,6.27,0,0,0,1.28,1.74l7,6.61a14.48,14.48,0,0,1,3.86,6.23L458,252.78Z" fill="#fff" stroke="#4c5054" stroke-miterlimit="3" stroke-width="4.96"/><path d="M458.77,255.91s-3.08-29.12-3.07-30.65l.05-17.66s.18-12.11-.28-14c-.18-1.35-3.69-.3-3.93,1.65-.15,1.31.29,7.21.29,7.21l-4.56-17.81c0-.13-.95,0-1.06,0a.59.59,0,0,0-.37,0,2.4,2.4,0,0,0-1.53,1.45l-.21.57-1.2-4.34a.91.91,0,0,0-1-.62h0a3.22,3.22,0,0,0-2.63,3.52l3.11,17.18-.37-.52-6.12-16.6a1,1,0,0,0-1.26-.65l-.05,0h0c-1.32.51-2.88,2.52-2.68,3.92l1.13,7.84.26,11.83s-.43,3.09-.85,5c-.15.72-4.27-3.56-4.27-3.56l-1.86-5.12a4.38,4.38,0,0,0-3.09-2.94h0c-1.07-.27-2.07,2-2,3.12L422,211a6.13,6.13,0,0,0,.6,2.05l4.87,9.8a6.27,6.27,0,0,0,1.28,1.74l7,6.61a14.48,14.48,0,0,1,3.86,6.23L458,252.78Z" fill="#fff"/><path d="M487.26,287,460.9,235.15s-20.18,3.68-21.08,3.68l1,12,18.29,32.8a1.74,1.74,0,0,1-.94,2.26,1.77,1.77,0,0,1-.91.11l-35.63-3.1a102.68,102.68,0,0,0-36,0L350.37,286a1.76,1.76,0,0,1-1.73-2.5l19.49-37.24-5.66-3c-.9,0-20.75-1.25-20.75-1.25l-25.36,52.25c-.54,1.13-1.1,11,2,19.95h0c2.66,7.56,7.93,13.05,20.14,20.93a62.43,62.43,0,0,0,19.25,8.32,194.26,194.26,0,0,0,88.15.63c11.19-2.51,18.31-5.41,25-9.16,12.67-7.11,15.21-13.16,17.87-20.72h0A35.68,35.68,0,0,0,487.26,287Z" fill="#fff" stroke="#4c5054" stroke-miterlimit="10" stroke-width="2.31"/><g clip-path="url(#a)"><path d="M444.15,324s-8,6-41.41,6-41-6-41-6a9.92,9.92,0,0,1-4.77-5.62,40.06,40.06,0,0,1-2-12.53c0-7.49.09-3,1.95-8.62.65-2.38,4.63-4,6.65-4l38.86-4.09,40.7,3.18c2,0,4.52,2.52,5.18,4.9a24.47,24.47,0,0,1,2.15,8.32c.53,8.68-1.66,13-1.66,13A14.35,14.35,0,0,1,444.15,324Z" fill="none" stroke="#4c5054" stroke-miterlimit="10" stroke-width="12.8"/><path d="M470,335.13s-12.68,13.49-66.48,13.49-68.46-13.39-68.46-13.39c-3.43-1.76-6.65-4.63-7.69-8.12,0,0-.73-1.47-.73-11.84a61.52,61.52,0,0,1,3.14-18.93,7.74,7.74,0,0,1,7.21-5.76l66.14-5.92,65.58,4.59c3.26,0,8.91,4.24,10,7.69,0,0,1.84,3.8,1.84,16.37s-2.67,12.92-2.67,12.92C476,329.54,473.07,333.37,470,335.13Z" fill="none" stroke="#4c5054" stroke-miterlimit="10" stroke-width="13.16"/><path d="M499.35,360.43s-18.19,14.81-93.93,14.81-92.94-14.81-92.94-14.81c-4.83-3-9.36-8-10.82-13.95a107.69,107.69,0,0,1-4.46-31.1c0-17.79,2.18-43.81,2.18-43.81-3.12,12.39-4.69-.62,6.41-.62l97.2,26.2,101.9-29.88c4.58,0,6.37-4.92,7.86,1,0,0,1.08,24.78,1.08,46.35s-3.76,32.18-3.76,32.18C507.39,352.48,503.64,357.4,499.35,360.43Z" fill="none" stroke="#4c5054" stroke-miterlimit="10" stroke-width="13.39"/><path d="M329.32,255c2.19,1.64,40.72,5.94,40.72,5.94" fill="none" stroke="#4c5054" stroke-miterlimit="10" stroke-width="13.39"/><line x1="441.05" y1="259.29" x2="475.42" y2="250.9" fill="none" stroke="#4c5054" stroke-miterlimit="10" stroke-width="13.39"/></g><path d="M384.51,249.4v3.95a1.47,1.47,0,0,0,1.47,1.47h30.41a1.47,1.47,0,0,0,1.48-1.46h0V249.4Z" fill="#dadada"/><path d="M355.2,255.9c8.08-6.73,13.17-13.39,14.72-27.77,11.18-45.88,73.8-18.23,70.72,5.83-.49,3.84-1,7.43-1.52,10.86,2.4,4.11,7.55,7.79,11.36,11.3,1.58,1.45-.61,16.84-5.22,19.79-3.36,2.15-14.45,1.52-14.9,5-1.13,8.63-6.44,18.5-6.75,21.48-1.9,18-39.53,19.53-42-.75-.7-5.73-5.1-12.1-6.22-20.73-.45-3.44-14.88-2.37-18.24-4.52C352.55,273.4,351.55,258.94,355.2,255.9Z" fill="#fff" stroke="#4c5054" stroke-miterlimit="10" stroke-width="2.35"/><path d="M393.92,197.38c-15.22-3.88-26.88,8.55-34.29,30.34-.42,1.21-.8,2.47-1.15,3.78-1,8.74-.63,8.25.68,21.35,1.89,4.85,4,16.28,5.24,19.66-.08.09,4.58,8.92,4.58,8.92s7.27,10.69,7.27,17.32c0,1.95-2.42,4.52-2.4,4.52,1.67-.68,2-.24,5.95-4,2-2,3.82-.28,5.6,3a37.79,37.79,0,0,0,2.9,4.8c.57-4.1,1.6-4.57,3.05-4.29,1.25.23,4.25,4.28,6.25,6.84a13.12,13.12,0,0,0,2.54-5.32c.72-4.51,8.95,1.51,7.48,5.39,0,.09,1.64,1.33,4-5.2s5.64-2.46,5.39,1.43c-.11,1.73-.62,2.84-.31,2.44,3-4.07,3.49-8.59,5.55-8.28s6.54,4.74,6.11,3.76c-1.13-2.58-.08-8.67.62-11.37.94-3.59,4-8.91,6.28-14,5.81-13.07,7.25-11,11-26.81,0,0,3-53.54-29.51-54.47C403.4,196.78,402,202,402,202S396.22,198,393.92,197.38Z" fill="#fff" stroke="#4c5054" stroke-miterlimit="3" stroke-width="2.39"/><line x1="402.06" y1="227.65" x2="401.95" y2="201.17" fill="none" stroke="#4c5054" stroke-miterlimit="3" stroke-width="2.39"/><path d="M401.88,211.28c-1.37-2.69-5.59-6.89-12.69-3.71" fill="#fff" stroke="#4c5054" stroke-miterlimit="3" stroke-width="2.39"/><path d="M401.74,215.71s4.88-6.68,13.91-2.6" fill="#fff" stroke="#4c5054" stroke-miterlimit="3" stroke-width="2.39"/><path d="M401.83,207.42s1.53-4.62,10.95-2.8" fill="#fff" stroke="#4c5054" stroke-miterlimit="3" stroke-width="2.39"/><polygon points="424.31 141.87 375.76 141.87 374.98 134.53 424.8 134.53 424.31 141.87" fill="#d0f1f7"/><polygon points="423.67 152.13 376.98 152.13 376.23 145.07 424.14 145.07 423.67 152.13" fill="#d0f1f7"/><polygon points="454.66 129.34 347.3 129.34 346.14 117.97 456.09 117.97 454.66 129.34" fill="#d0f1f7"/><polygon points="451.45 158.77 456.37 117.78 345.94 117.78 351.05 158.77 451.45 158.77" fill="none" stroke="#29ace5" stroke-miterlimit="10"/><polyline points="580.8 160.35 580.8 185.58 552.39 185.58 552.39 223.81 572.1 223.81 572.1 248.22 538.42 248.22 538.42 269.19 554.71 269.19 587.05 269.19" fill="none" stroke="#cbd0d1" stroke-miterlimit="10"/><polygon points="552.38 209.54 546.61 201.27 558.14 201.27 552.38 209.54" fill="#cbd0d1"/><polygon points="588.94 269.21 580.66 274.98 580.66 263.45 588.94 269.21" fill="#cbd0d1"/><rect x="49.91" y="28.02" width="382.06" height="47.62" fill="#d0f1f7" stroke="#0071bc" stroke-miterlimit="10" stroke-width="2"/><g style="isolation:isolate"><text transform="translate(63.64 46.84)" font-size="14" fill="#333332" font-family="Courier-Bold, Courier" font-weight="700" style="isolation:isolate">badguy&apos;;update users set password=&apos;letmein&apos;</text><text transform="translate(63.64 63.64)" font-size="14" fill="#333332" font-family="Courier-Bold, Courier" font-weight="700" style="isolation:isolate">where user=&apos;administrator&apos;--</text></g><path d="M535.75,303.43l-7.24,20.17a5.64,5.64,0,0,0,3.39,7.21h0l51.69,18.47a5.64,5.64,0,0,0,7.21-3.4l7.72-21.49c1.05-2.93-.95-4.83-3.88-5.89L543,300a5.64,5.64,0,0,0-7.23,3.37Z" fill="#c6c6c6"/><path d="M591.73,346.13a5.36,5.36,0,0,1-6.85,3.23L529,329.1a5.38,5.38,0,0,1-3.24-6.86L533,302.08a5.36,5.36,0,0,1,6.85-3.23l55.92,20.27c2.3.82,4.81,2.45,3.71,5.52Z" fill="#fff" stroke="#4c5054" stroke-miterlimit="10" stroke-width="2"/><rect x="546.18" y="299.16" width="31.01" height="49.9" transform="translate(66.84 743.23) rotate(-70.25)" fill="#4c5054"/><line x1="532.81" y1="318.2" x2="535.84" y2="310.07" fill="none" stroke="#4c5054" stroke-linecap="round" stroke-miterlimit="10" stroke-width="2"/><circle cx="589.8" cy="334.51" r="2.71" fill="none" stroke="#4c5054" stroke-linecap="round" stroke-miterlimit="10" stroke-width="2"/><path d="M233.65,338.59l.26-6.31a1.39,1.39,0,0,1,.74-1.18l43.67-22.86" fill="none" stroke="#cbd0d1" stroke-miterlimit="10" stroke-width="2"/><path d="M281.61,320l-3.89-4.12a1.4,1.4,0,0,0-1.33-.4L228.52,326.8" fill="none" stroke="#cbd0d1" stroke-miterlimit="10" stroke-width="2"/><path d="M250.85,321.44l.42-.42a7.1,7.1,0,0,1,6.09-2h0" fill="#fff" stroke="#4c5054" stroke-miterlimit="10" stroke-width="2"/><polyline points="232.83 347.87 233.64 338.92 233.65 338.59" fill="none" stroke="#4c5054" stroke-linecap="round" stroke-miterlimit="10" stroke-width="2"/><polyline points="288.76 326.95 282.28 320.72 281.85 320.28" fill="none" stroke="#4c5054" stroke-linecap="round" stroke-miterlimit="10" stroke-width="2"/><path d="M259.38,323.67c3.5,4.57,9,7.54,15,5.29s7.85-7.86,7.59-13.61c-.1-2.32-.65-5.11-2.71-6.67-2.4-1.82-8.79,0-12.32,1.58s-8.7,4.78-9.68,7.8C256.7,319.88,258,321.88,259.38,323.67Z" fill="none" stroke="#4c5054" stroke-miterlimit="10" stroke-width="2"/><path d="M252.9,326.09c.36,5.74-1.84,11.61-7.86,13.86s-11.09-.78-14.66-5.29c-1.45-1.82-2.86-4.29-2.33-6.81.62-3,6.65-5.76,10.33-6.89s9.7-2.11,12.43-.47C252.44,321.47,252.76,323.84,252.9,326.09Z" fill="none" stroke="#4c5054" stroke-miterlimit="10" stroke-width="2"/><rect x="210.88" y="97.75" width="20.46" height="8.15" rx="4.07" transform="translate(-22.25 107.4) rotate(-26.04)" fill="#4c5054"/><circle cx="203.75" cy="109.7" r="18.38" fill="#fff" stroke="#4c5054" stroke-miterlimit="10" stroke-width="1.86"/><circle cx="203.75" cy="109.7" r="12.89" fill="#4c5054"/><rect x="81.11" y="195.12" width="133.34" height="23.33" fill="#edd6d6"/><rect x="81.11" y="229.07" width="133.34" height="23.33" fill="#edd6d6"/><rect x="25.39" y="140.65" width="219.47" height="32.9" fill="#edd6d6"/><rect x="24.45" y="141" width="221.56" height="136.87" fill="none" stroke="#d60000" stroke-miterlimit="10" stroke-width="2"/><text transform="translate(106.74 164.04)" font-size="18" fill="#d60000" font-family="Arial-BoldMT, Arial" font-weight="700" style="isolation:isolate">LOGIN</text><text transform="translate(88.91 212.07)" font-size="13.7" fill="#d60000" font-family="Arial-BoldMT, Arial" font-weight="700" style="isolation:isolate">administrator</text><text transform="translate(88.91 245.72)" font-size="13.7" fill="#d60000" font-family="Arial-BoldMT, Arial" font-weight="700" style="isolation:isolate">letmein</text><path d="M54.94,206.88a8.92,8.92,0,0,0-8.94,8.9v0H63.87A8.93,8.93,0,0,0,54.94,206.88Z" fill="none" stroke="#d60000" stroke-miterlimit="10" stroke-width="2"/><circle cx="54.94" cy="201.29" r="5.4" fill="none" stroke="#d60000" stroke-miterlimit="10" stroke-width="2"/><rect x="81.11" y="195.12" width="133.34" height="23.33" fill="none" stroke="#d60000" stroke-miterlimit="10" stroke-width="2"/><rect x="81.11" y="229.07" width="133.34" height="23.33" fill="none" stroke="#d60000" stroke-miterlimit="10" stroke-width="2"/><path d="M260.49,271.58a16.38,16.38,0,0,1,.25,2.8,15.94,15.94,0,1,1-5.53-12.07" fill="#fff" stroke="#d60000" stroke-miterlimit="10" stroke-width="2"/><polyline points="236.96 270.73 245.47 279.24 263.41 261.3" fill="none" stroke="#d60000" stroke-miterlimit="10" stroke-width="2"/><line x1="24.68" y1="173.76" x2="245.79" y2="173.76" fill="none" stroke="#d60000" stroke-miterlimit="10" stroke-width="2"/><rect x="47.78" y="237.69" width="14.72" height="14.72" fill="none" stroke="#d60201" stroke-miterlimit="10" stroke-width="2"/><path d="M58.92,237.43V232a3.78,3.78,0,0,0-7.56,0h0v1.39" fill="none" stroke="#d60201" stroke-miterlimit="10" stroke-width="2"/><circle cx="55.44" cy="243.31" r="2.47" fill="#d60201"/><line x1="55.44" y1="244.92" x2="55.44" y2="248.61" fill="none" stroke="#d60201" stroke-linecap="round" stroke-miterlimit="10" stroke-width="2"/><rect x="535.1" y="23.51" width="221.3" height="32.9" fill="#d0f1f7"/><polyline points="756.54 64.13 756.54 160.58 534.98 160.58 534.98 23.71 756.54 23.71 756.54 64.13" fill="none" stroke="#0071bc" stroke-miterlimit="10" stroke-width="2"/><g style="isolation:isolate"><text transform="translate(547.1 46.86)" font-size="18" fill="#0071bc" font-family="Arial-BoldMT, Arial" font-weight="700" style="isolation:isolate">CRE</text><text transform="translate(585.1 46.86)" font-size="18" fill="#0071bc" font-family="Arial-BoldMT, Arial" font-weight="700" letter-spacing="-0.11em" style="isolation:isolate">A</text><text transform="translate(596.77 46.86)" font-size="18" fill="#0071bc" font-family="Arial-BoldMT, Arial" font-weight="700" style="isolation:isolate">TE</text><text transform="translate(619.77 46.86)" font-size="18" fill="#0071bc" font-family="Arial-BoldMT, Arial" font-weight="700" letter-spacing="-0.04em" style="isolation:isolate"> </text><text transform="translate(624.1 46.86)" font-size="18" fill="#0071bc" font-family="Arial-BoldMT, Arial" font-weight="700" style="isolation:isolate">AN</text><text transform="translate(650.1 46.86)" font-size="18" fill="#0071bc" font-family="Arial-BoldMT, Arial" font-weight="700" letter-spacing="-0.04em" style="isolation:isolate"> </text><text transform="translate(654.43 46.86)" font-size="18" fill="#0071bc" font-family="Arial-BoldMT, Arial" font-weight="700" style="isolation:isolate">ACCOUNT</text></g><path d="M565.47,89.6a8.92,8.92,0,0,0-8.92,8.92h17.84a8.92,8.92,0,0,0-8.92-8.92Z" fill="none" stroke="#0071bc" stroke-miterlimit="10" stroke-width="2"/><circle cx="565.47" cy="84.01" r="5.4" fill="none" stroke="#0071bc" stroke-miterlimit="10" stroke-width="2"/><rect x="591.64" y="77.84" width="133.34" height="23.33" fill="#d0f1f7" stroke="#0071bc" stroke-miterlimit="10" stroke-width="2"/><rect x="591.64" y="111.79" width="133.34" height="23.33" fill="#d0f1f7" stroke="#0071bc" stroke-miterlimit="10" stroke-width="2"/><line x1="535.21" y1="56.48" x2="756.32" y2="56.48" fill="none" stroke="#0071bc" stroke-miterlimit="10" stroke-width="2"/><rect x="557.95" y="120.05" width="14.72" height="14.72" fill="none" stroke="#0071bc" stroke-miterlimit="10" stroke-width="2"/><path d="M569.09,119.79v-5.44a3.78,3.78,0,0,0-7.56,0v1.4" fill="none" stroke="#0071bc" stroke-miterlimit="10" stroke-width="2"/><circle cx="565.61" cy="125.68" r="2.47" fill="#0071bc"/><line x1="565.61" y1="127.28" x2="565.61" y2="130.97" fill="none" stroke="#0071bc" stroke-linecap="round" stroke-miterlimit="10" stroke-width="2"/><polygon points="316.93 89.62 310.93 80.81 304.93 89.81 316.93 89.62" fill="#cbd0d1"/><polyline points="333.5 165.29 291.51 165.29 291.51 132.84 305.88 132.84 305.88 147.2 278.21 147.2 278.21 94.73 258.35 94.73 258.35 115.18 310.57 115.18 310.57 88.06" fill="none" stroke="#cbd0d1" stroke-miterlimit="10"/><polygon points="313.53 159.43 304.64 165.32 313.56 171.43 313.53 159.43" fill="#cbd0d1"/><rect x="159.84" y="366.92" width="515.37" height="42.48" fill="#ebf0f2" stroke="#4c5054" stroke-miterlimit="10" stroke-width="1.32"/><g style="isolation:isolate"><text transform="translate(170.52 384.07)" font-size="14" fill="#333332" font-family="Courier-Bold, Courier" font-weight="700" style="isolation:isolate">select * from user_options where user=&apos;badguy&apos;;update users</text><text transform="translate(170.52 400.87)" font-size="14" fill="#333332" font-family="Courier-Bold, Courier" font-weight="700" style="isolation:isolate">set password=&apos;letmein&apos; where user=&apos;administrator&apos;--</text></g><polyline points="725.04 304.52 725.04 349.19 680.12 349.19 680.12 324.53 703.9 324.53 703.9 371.65 754.98 371.65 754.98 389.93 688.93 389.93" fill="none" stroke="#cbd0d1" stroke-miterlimit="10"/><polygon points="684.82 390.04 693.09 384.27 693.09 395.8 684.82 390.04" fill="#cbd0d1"/><polygon points="734.82 371.54 726.55 377.31 726.55 365.77 734.82 371.54" fill="#cbd0d1"/><polygon points="724.9 331.04 719.14 322.76 730.67 322.76 724.9 331.04" fill="#cbd0d1"/><polyline points="432.62 50.96 456.4 50.96 456.4 72.54 482.69 72.54 482.69 46.12 499.66 46.12 499.66 88.39 545.35 88.39" fill="none" stroke="#0071bc" stroke-miterlimit="10" stroke-dasharray="6 6"/><polygon points="469.03 72.54 460.75 78.3 460.75 66.77 469.03 72.54" fill="#0071bc"/><polygon points="550.57 88.34 542.3 94.11 542.3 82.58 550.57 88.34" fill="#0071bc"/><polyline points="158.58 388.86 74.17 388.86 74.17 342 52.85 342 52.85 363.56 94.03 363.56 94.03 316.21 159.25 316.21 159.25 339.88 137.15 339.88 137.15 288.25" fill="none" stroke="#d60000" stroke-miterlimit="10"/><polygon points="117.72 388.78 125.99 383.02 125.99 394.55 117.72 388.78" fill="#d60000"/><polygon points="94.01 344.46 99.77 352.73 88.24 352.73 94.01 344.46" fill="#d60000"/><polygon points="137.11 284.48 142.87 292.75 131.34 292.75 137.11 284.48" fill="#d60000"/><rect x="602.95" y="189.43" width="153.52" height="38.62" fill="#fcf1e0"/><rect x="602.95" y="189.43" width="153.52" height="115.47" fill="none" stroke="#ffaf10" stroke-miterlimit="10" stroke-width="2"/><rect x="653.42" y="235.37" width="50.6" height="4.48" fill="#fcf1e0"/><rect x="617.9" y="235.37" width="28.99" height="29.03" fill="#fcf1e0"/><rect x="617.9" y="269.4" width="28.99" height="25.02" fill="#fcf1e0"/><rect x="653.42" y="242.75" width="50.6" height="4.48" fill="#fcf1e0"/><text transform="translate(653.45 214.77)" font-size="18" fill="#ffaf10" font-family="Arial-BoldMT, Arial" font-weight="700" style="isolation:isolate">PROFILE</text><circle cx="632.67" cy="208.74" r="14.26" fill="#fff"/><path d="M632.46,208.3a7,7,0,0,0-7,7h13.91A7,7,0,0,0,632.46,208.3Z" fill="none" stroke="#ffaf10" stroke-miterlimit="10" stroke-width="2"/><circle cx="632.46" cy="203.95" r="4.2" fill="none" stroke="#ffaf10" stroke-miterlimit="10" stroke-width="2"/><rect x="653.42" y="252.53" width="87.44" height="17.88" fill="#fcf1e0"/><rect x="653.42" y="275.72" width="87.44" height="17.88" fill="#fcf1e0"/><line x1="602.85" y1="228.07" x2="756.55" y2="228.07" fill="none" stroke="#ffaf10" stroke-miterlimit="10" stroke-width="2"/><path d="M566.89,326a2.65,2.65,0,0,0-.61-3,9,9,0,0,0-1.74-.46s-.79-.16-1.48-.25-1,.36-1.26,1.84a3.22,3.22,0,0,0,2.41,3.4C565.68,327.92,566.28,327.19,566.89,326Z" fill="#fff"/><path d="M560.56,325.3s-.94-.13-1.71,1.35-1,2-.86,2.07.67-.35,1-.54.47-.36.71-.27.48,1.11.58,1.34,0,.23.21.26a6.34,6.34,0,0,0,.59-2.56C561.14,326,560.89,325.43,560.56,325.3Z" fill="#fff"/><path d="M572,335.8c-.58-.92-2.61-1.44-3.88-2.22s-3.78-2.8-4.18-3.12a1.2,1.2,0,0,1,.43-.23,8.48,8.48,0,0,0,2.25-1h1.94a22.3,22.3,0,0,1,4.41.43,1.8,1.8,0,0,0,2.08-.88,1.18,1.18,0,0,0-.15-1.25s.07-.19.17-.52a1.14,1.14,0,0,0-.17-1,1.45,1.45,0,0,0-1.68-.52,12.73,12.73,0,0,1-2.5.86c-.49.09-1.72.19-2.38.24a9.39,9.39,0,0,1,.93-1.92,31.68,31.68,0,0,0,2.28-3.61c.71-1.41,1.22-2.82-.47-4.72a12.43,12.43,0,0,0-6.68-4.17l-.25-.06a10,10,0,0,0-5.24-.37c-2.63.77-3.46,1.79-3.88,3.35s-.76,4.29-1,5.1a10.73,10.73,0,0,1-.4,1.24c-.48-.48-1.33-1.31-1.64-1.69a8,8,0,0,1-1.08-1.89,1.43,1.43,0,0,0-1.62-.68,1.12,1.12,0,0,0-.78.67,4.57,4.57,0,0,0-.2.51,1.17,1.17,0,0,0-.92.85,1.81,1.81,0,0,0,1,2,15.79,15.79,0,0,1,3.37,2.13l1.56,1.28a4.65,4.65,0,0,0,1.06,2.09,3,3,0,0,1,.53.84,44,44,0,0,1-5.22-.1c-1.48-.22-3.09-1.05-4.13-.71a1.45,1.45,0,0,0-1.15,1.56,1.34,1.34,0,0,0,.38,1.13l.17.16a1.48,1.48,0,0,0,.06,1.6c.57.75,1.18,1.11,2.55.3a10.89,10.89,0,0,1,4.86-1.33c1.49-.11,2.54-.17,2.88-.19a4.58,4.58,0,0,0,2.35,2.06l0,0,.28.11h0c.68.25,2.39.77,3.61.09l.39-.24c.25.23,1,.95,2.09,2a11.16,11.16,0,0,1,2.88,4.13c.52,1.5,1.4,1.76,2.32,1.55s.88-1.29.88-1.29,0,0,.25-.05a1.48,1.48,0,0,0,1.24-.52A1.63,1.63,0,0,0,572,335.8Zm-3.8-8.75s2.17-.15,2.71-.24a7.32,7.32,0,0,0,2.1-.75,1.13,1.13,0,0,1,1.5.34,1.35,1.35,0,0,1,0,1,2.57,2.57,0,0,1-.69.65,1.54,1.54,0,0,0,.6-.35.72.72,0,0,1,.14,1c-.26.4-.53.63-2.16.32a20.76,20.76,0,0,0-4.16-.23h-1l.14-.18a3,3,0,0,0,.45-.64,3.36,3.36,0,0,0,.22-.4Zm-15.76-3.83a22.15,22.15,0,0,0-3.39-2.36c-1.45-.8-1.28-1-1.23-1.45a.72.72,0,0,1,.76-.66,1.81,1.81,0,0,0,.24.66,2.45,2.45,0,0,1-.11-.94,1.3,1.3,0,0,1,.6-.76.75.75,0,0,1,1.18.36,7.43,7.43,0,0,0,1.13,1.92c.34.39,1.74,1.73,1.91,1.9l-.07.19c0,.08,0,.19-.07.31v0a7.83,7.83,0,0,0-.17,1.46Zm-1.78,6.63a8.79,8.79,0,0,0-3.35,1.17c-.68.34-1.64.55-2.09-.4s.84-1.74.81-1.73a2.74,2.74,0,0,0-.66.38,1.5,1.5,0,0,1-.44-.57,1.27,1.27,0,0,1,.52-1.46c.52-.37,1.69,0,3.81.45a23.65,23.65,0,0,0,5.78.09s0,.33,0,.63.15,1,.15,1S552.43,329.61,550.63,329.85Zm11.31.8-.08,0c-.06-.05-.13-.06-.17.09a1,1,0,0,1-.59.81c-.4.12-.22-.56-.22-.56h-.07s-.14.7-.46.68,0-.7,0-.7l-.1,0s-.09.85-.57.8,0-.9,0-.9l-.18-.07s-.11,1-.73.85-.07-1.07-.07-1.07l-.25-.09s-.1,1-.75.81,0-1.12,0-1.12l-.23-.09s-.19.88-.59.75.06-1.05.06-1.05l-.09,0a3.27,3.27,0,0,1-.21.4c-.12.19-.35.21-.4,0a2,2,0,0,1,.19-.73h-.05l-.07.17c-.07.19-.19.34-.44.21s0-.81.1-1.06a.41.41,0,0,1,0-.09s-.16-.86-.22-1.43-.49-.72-1.12-1.35-1.45-1.41-.65-3.9a.46.46,0,0,0,0-.08l0-.11h0c.08-.25.18-.51.3-.79.4-.93,1.69-1.75,2.46-3.59s.39-2.25.28-2.15-1.24,2.2-1.75,3.06a7.78,7.78,0,0,1-.89,1.25s.5-4.57,1.81-5.53a7.66,7.66,0,0,1,4.34-1.71,22.28,22.28,0,0,1,4,.51,12.06,12.06,0,0,1,3.53,1.86c1.79,1.39,3.28,4.21,2.89,5.46a10.3,10.3,0,0,1-1.53,3l-1.06,1.65s.44-4.28.51-4.84-.26-.73-.57-.17a6.51,6.51,0,0,0-.68,3.5c.1,1.72.26,3.2-.66,4.52a4.82,4.82,0,0,1-3.35,1.72A3.76,3.76,0,0,0,561.94,330.65Zm9,7.11a1.64,1.64,0,0,1-.7.16,2.66,2.66,0,0,0-.26-.72s.46,1.39-.49,1.84-1.56-.32-1.87-1a8.59,8.59,0,0,0-1.82-3c-1.19-1.3-3.13-3.16-3.23-3.26a11.39,11.39,0,0,0,1-.89,33.29,33.29,0,0,0,4.73,3.39c1.93,1,3,1.48,3.21,2.1A1.27,1.27,0,0,1,570.92,337.76Z" fill="#fff"/><path d="M560.43,321.36c-.58-.38-1.29-.76-1.29-.76a9.29,9.29,0,0,0-1.63-.76,2.65,2.65,0,0,0-2.4,1.92c-.27,1.28-.29,2.22,1.08,2.88a3.22,3.22,0,0,0,4-1.06C561,322.28,561,321.74,560.43,321.36Z" fill="#fff"/></svg>